Coordinates
version=1
nRows=32
nColumns=22
inDegrees=yes

Units are S.I. units (second, meters, Newtons, ...)
If the header above contains a line with 'inDegrees', this indicates whether rotational values are in degrees (yes) or radians (no).

endheader
time	pelvis_tilt	pelvis_list	pelvis_rotation	pelvis_tx	pelvis_ty	pelvis_tz	hip_flexion_r	hip_adduction_r	hip_rotation_r	knee_angle_r	ankle_angle_r	subtalar_angle_r	hip_flexion_l	hip_adduction_l	hip_rotation_l	knee_angle_l	ankle_angle_l	subtalar_angle_l	lumbar_extension	lumbar_bending	lumbar_rotation
      1.47000000	     -3.10959535	     -1.57817216	     -8.96778994	     -1.13895228	      0.92726589	      0.75911861	      6.55632472	     -1.66423836	     -2.80318973	    -18.88525409	      8.63352998	      2.26186454	     -1.39744617	     -6.21451111	    -11.30194419	     -7.90817226	      9.66493737	      4.53664698	     -3.79850333	     -1.56253433	      1.10004542
      1.48000000	     -3.19356242	     -1.43407792	     -8.98623291	     -1.13887960	      0.92683528	      0.76032247	      6.98172234	     -1.68120686	     -3.07832344	    -19.48835768	      8.94886182	      1.96678854	     -1.24229941	     -6.16427131	    -11.26030572	     -8.03417518	      9.68972831	      4.55859541	     -3.79173791	     -1.77377387	      1.05717842
      1.49000000	     -3.18787415	     -1.30067180	     -8.98962423	     -1.13867812	      0.92649538	      0.76161095	      7.24628536	     -1.70018254	     -3.33232891	    -19.99243835	      9.27761483	      1.79722108	     -1.19286956	     -6.11744093	    -11.27529328	     -8.15860082	      9.78618055	      4.58634963	     -3.87671394	     -1.98698020	      0.95723790
      1.50000000	     -3.24130802	     -1.15428347	     -8.97616285	     -1.13848910	      0.92605777	      0.76299402	      7.54396032	     -1.71990240	     -3.56564292	    -20.44326230	      9.60064005	      1.51624251	     -1.06179865	     -6.07604257	    -11.21779600	     -8.30751471	      9.82835992	      4.60180397	     -3.89001315	     -2.21338058	      0.89682206
      1.51000000	     -3.19847439	     -1.05159581	     -8.96186775	     -1.13815833	      0.92573455	      0.76449540	      7.65105936	     -1.70703050	     -3.75871912	    -20.76595469	      9.90748430	      1.42191555	     -1.04383865	     -6.07529121	    -11.23000563	     -8.47484245	      9.94667685	      4.62560264	     -4.00603492	     -2.40783341	      0.84067315
      1.52000000	     -3.19617205	     -0.92368339	     -8.91744498	     -1.13781341	      0.92533230	      0.76605399	      7.75664898	     -1.71579175	     -3.91153693	    -21.01672509	     10.24691037	      1.25704061	     -0.96691880	     -6.06095762	    -11.17631874	     -8.65233454	     10.03990793	      4.65036008	     -4.07244226	     -2.62720904	      0.75323245
      1.53000000	     -3.25118531	     -0.80234845	     -8.86879354	     -1.13739599	      0.92484606	      0.76770549	      7.87668862	     -1.71210644	     -4.05090010	    -21.20160976	     10.52901903	      0.96440928	     -0.82997170	     -6.06810390	    -11.06729779	     -8.84058218	     10.11702396	      4.66837179	     -4.05506350	     -2.82876863	      0.68108798
      1.54000000	     -3.23823941	     -0.73562436	     -8.83147835	     -1.13685217	      0.92446472	      0.76949062	      7.82971305	     -1.65455385	     -4.09760698	    -21.24910261	     10.79158378	      0.91502588	     -0.77424473	     -6.13343540	    -11.04933937	     -9.05430759	     10.22498653	      4.68410282	     -4.11248108	     -2.98112671	      0.63140290
      1.55000000	     -3.24822355	     -0.68039446	     -8.78421770	     -1.13623255	      0.92405017	      0.77134583	      7.76288864	     -1.59116093	     -4.16100459	    -21.23849868	     11.04130241	      0.86674476	     -0.69515468	     -6.21920533	    -10.98777061	     -9.27656952	     10.34584472	      4.70387825	     -4.13465877	     -3.11596973	      0.60460943
      1.56000000	     -3.27735367	     -0.65043318	     -8.73934505	     -1.13553073	      0.92362548	      0.77329715	      7.66700312	     -1.50050764	     -4.21534714	    -21.15724137	     11.25930080	      0.84492320	     -0.59504364	     -6.34164948	    -10.92471407	     -9.52271986	     10.46957999	      4.72254693	     -4.12657527	     -3.21854692	      0.60052259
      1.57000000	     -3.34025291	     -0.66786249	     -8.69915140	     -1.13475603	      0.92317250	      0.77535387	      7.56774916	     -1.35701400	     -4.29421959	    -21.02930223	     11.42466989	      0.84656649	     -0.45082049	     -6.53037808	    -10.86455297	     -9.81395705	     10.64768360	      4.74834329	     -4.07485090	     -3.25913193	      0.62828073
      1.58000000	     -3.40004423	     -0.69518143	     -8.68573259	     -1.13393506	      0.92275864	      0.77754101	      7.43313605	     -1.19233205	     -4.30187432	    -20.84440196	     11.59806793	      0.88123644	     -0.30486041	     -6.73516691	    -10.82584902	    -10.13594544	     10.76293955	      4.75752189	     -4.02524991	     -3.29244056	      0.67643386
      1.59000000	     -3.51523283	     -0.80104559	     -8.68125338	     -1.13306140	      0.92228987	      0.77984172	      7.33800561	     -0.93484324	     -4.35551700	    -20.64834304	     11.65010235	      0.93314920	     -0.08063039	     -7.04734505	    -10.79787390	    -10.53648935	     11.00153195	      4.77809415	     -3.91159396	     -3.22885036	      0.79037533
      1.60000000	     -3.63059242	     -0.92768647	     -8.70136050	     -1.13215690	      0.92185368	      0.78226913	      7.22773550	     -0.64345424	     -4.37857768	    -20.42862488	     11.72844953	      0.97602923	      0.15735202	     -7.38906896	    -10.77649026	    -10.98295635	     11.19870019	      4.78330727	     -3.80440491	     -3.14749693	      0.92806481
      1.61000000	     -3.75149842	     -1.10062484	     -8.73552842	     -1.13118674	      0.92143556	      0.78479189	      7.10650421	     -0.29316867	     -4.39091299	    -20.19601027	     11.77680733	      1.00452916	      0.42221834	     -7.78951932	    -10.75087390	    -11.50122095	     11.41322215	      4.77749715	     -3.69030892	     -3.01396692	      1.09502845
      1.62000000	     -3.87687513	     -1.31849092	     -8.78641467	     -1.13020342	      0.92102913	      0.78742426	      6.98021529	      0.11790374	     -4.38947424	    -19.95612035	     11.79412911	      1.01606993	      0.72129169	     -8.24884729	    -10.70712616	    -12.10066133	     11.64958197	      4.76631717	     -3.58747227	     -2.83670953	      1.29326001
      1.63000000	     -3.98575222	     -1.57776619	     -8.84554684	     -1.12914686	      0.92064762	      0.79013444	      6.81943161	      0.57904028	     -4.37390822	    -19.70706543	     11.81444206	      1.01321340	      1.02868961	     -8.75717106	    -10.64495621	    -12.77498379	     11.89967603	      4.74450954	     -3.50578518	     -2.61873387	      1.51151809
      1.64000000	     -4.07762095	     -1.87469086	     -8.91527314	     -1.12806473	      0.92027746	      0.79291398	      6.63178495	      1.08590235	     -4.34132238	    -19.45623703	     11.81786696	      0.99352392	      1.35578182	     -9.30958938	    -10.54121595	    -13.54084696	     12.17173964	      4.71787000	     -3.45918752	     -2.36587162	      1.74487203
      1.65000000	     -4.14286390	     -2.19865744	     -8.98568980	     -1.12692202	      0.91990653	      0.79572447	      6.40642192	      1.62029418	     -4.29824357	    -19.20823838	     11.82601013	      0.96081647	      1.69480893	     -9.89020294	    -10.38700070	    -14.39815202	     12.46143839	      4.68602625	     -3.44880047	     -2.08634816	      1.98362828
      1.66000000	     -4.18603553	     -2.55253381	     -9.04278368	     -1.12581293	      0.91950712	      0.79855783	      6.16200786	      2.18659618	     -4.24276201	    -18.97998092	     11.82371258	      0.91158591	      2.07590415	    -10.50689650	    -10.15967759	    -15.37474899	     12.78018570	      4.65140086	     -3.49117488	     -1.78491881	      2.21866481
      1.67000000	     -4.21243301	     -2.92074281	     -9.07759459	     -1.12471292	      0.91904956	      0.80134265	      5.91443763	      2.76069747	     -4.18895150	    -18.78836596	     11.82590846	      0.85006368	      2.50808598	    -11.13610972	     -9.85542556	    -16.46908998	     13.11973640	      4.61334429	     -3.56689989	     -1.46526676	      2.42566467
      1.68000000	     -4.21691076	     -3.29460331	     -9.08921007	     -1.12364749	      0.91851891	      0.80407882	      5.65861577	      3.33031903	     -4.16000193	    -18.62616093	     11.88560690	      0.80399431	      2.99212126	    -11.76834360	     -9.48221503	    -17.68310635	     13.47603674	      4.56293705	     -3.68997383	     -1.14310441	      2.61806522
      1.69000000	     -4.23196547	     -3.66893544	     -9.05868807	     -1.12264759	      0.91786056	      0.80669838	      5.44674776	      3.89116717	     -4.16095549	    -18.52033604	     11.96611819	      0.75352111	      3.59141153	    -12.39965177	     -9.01833573	    -19.05266051	     13.82628469	      4.49915862	     -3.82119141	     -0.81022316	      2.76620107
      1.70000000	     -4.17818349	     -4.05807024	     -9.01025435	     -1.12170563	      0.91717679	      0.80924801	      5.19850526	      4.44871987	     -4.18111753	    -18.48176432	     12.09559012	      0.74135708	      4.19133226	    -13.02754836	     -8.48055849	    -20.54168047	     14.21627290	      4.41824416	     -4.06319552	     -0.47147103	      2.91007484
      1.71000000	     -4.10744683	     -4.44556948	     -8.92389457	     -1.12080153	      0.91640765	      0.81166339	      4.96611375	      4.99035499	     -4.23625829	    -18.50096473	     12.25334532	      0.72916370	      4.87779355	    -13.63825930	     -7.85358717	    -22.18714979	     14.56725390	      4.31024548	     -4.34298542	     -0.12727349	      3.01925650
      1.72000000	     -3.98922282	     -4.83388308	     -8.81632681	     -1.11995505	      0.91560414	      0.81398737	      4.72054365	      5.51899678	     -4.31526225	    -18.57830763	     12.45479197	      0.71591937	      5.60664127	    -14.22723749	     -7.15514848	    -23.97670787	     14.87191383	      4.16789104	     -4.70528274	      0.21149036	      3.11182085
      1.73000000	     -3.81291936	     -5.22214577	     -8.68804118	     -1.11911189	      0.91480263	      0.81619472	      4.44164989	      6.03115460	     -4.41535573	    -18.70492534	     12.69258289	      0.69469556	      6.35955757	    -14.78736936	     -6.40127204	    -25.90056912	     15.11049707	      3.98421905	     -5.15338750	      0.54928936	      3.19342278
      1.74000000	     -3.62466822	     -5.58649736	     -8.54124155	     -1.11832116	      0.91396011	      0.81827471	      4.19904519	      6.50738663	     -4.55642816	    -18.90392956	     12.95659202	      0.63395439	      7.20007654	    -15.29626100	     -5.59518139	    -27.96638745	     15.21285790	      3.68316502	     -5.63617278	      0.86469102	      3.25732275
      1.75000000	     -3.30516078	     -5.95986188	     -8.38327630	     -1.11746492	      0.91327399	      0.82024335	      3.81589552	      6.97228473	     -4.67730486	    -19.10367007	     13.22269768	      0.58851278	      7.94723228	    -15.76999788	     -4.77534533	    -30.11015429	     15.27028594	      3.42155320	     -6.28900962	      1.17733530	      3.32275494
      1.76000000	     -2.96663563	     -6.29232925	     -8.20447784	     -1.11660402	      0.91260574	      0.82205138	      3.45103673	      7.38192000	     -4.84076827	    -19.35627705	     13.49978200	      0.50296784	      8.76027791	    -16.16744919	     -3.92945458	    -32.36359588	     15.15676178	      3.04264075	     -6.97644262	      1.45210571	      3.37403659
      1.77000000	     -2.58018639	     -6.57518442	     -8.02067318	     -1.11569852	      0.91202169	      0.82372161	      3.06078177	      7.72737516	     -5.00457113	    -19.64133318	     13.80100601	      0.39677974	      9.58194745	    -16.47704117	     -3.09997764	    -34.69201359	     14.89259927	      2.60229394	     -7.72574949	      1.67474451	      3.41912605
      1.78000000	     -2.15442636	     -6.79596003	     -7.83026515	     -1.11473133	      0.91153332	      0.82525793	      2.64624573	      7.99925905	     -5.15106767	    -19.94277605	     14.10853167	      0.27595941	     10.41376848	    -16.68863026	     -2.30160790	    -37.07498813	     14.47741842	      2.12614942	     -8.52326596	      1.83022237	      3.42494708
